<svg xmlns="http://www.w3.org/2000/svg" width="512" height="180" viewBox="0 0 512 180">
  <rect width="512" height="180" fill="#14161b"/>
  <g transform="matrix(5.0204,0,0,5.0204,38.88,28.08)">
    <g transform="matrix(0.5289676,0,0,0.5289676,-102.99353,-23.639235)">
      <path fill="#f9f9f9" d="m 211.39457,51.062266 c -8.98285,1.51e-4 -16.26477,7.282305 -16.26464,16.265157 1.5e-4,8.98265 7.28199,16.264505 16.26464,16.264641 3.09509,4.6e-5 5.98818,-0.864541 8.45116,-2.365231 l -3.16156,-3.092317 c -1.57464,0.758416 -3.3401,1.183395 -5.20485,1.18339 -6.63273,-1.7e-5 -12.00962,-5.376876 -12.0096,-12.009603 -2e-5,-6.632727 5.37687,-12.00962 12.0096,-12.009603 6.63273,-1.7e-5 12.00958,5.376876 12.0096,12.009603 0,1.704867 -0.35531,3.326635 -0.9958,4.795573 l 3.1228,3.122807 c 1.30203,-2.338924 2.04376,-5.032421 2.04381,-7.89926 1.5e-4,-8.983055 -7.28211,-16.265293 -16.26516,-16.265157 z"/>
      <path fill="#f9f9f9" d="m 210.80335,69.002021 5.26979,0.03253 10.60463,10.63716 11.54798,-11.450399 h 5.04208 l -8.32756,8.295034 8.29503,8.295031 -4.74931,0.03253 -5.95291,-5.952906 -5.92037,5.855317 z"/>
    </g>
  </g>
  <text x="195" y="88" font-family="Segoe UI, Arial, sans-serif" font-size="52" font-weight="600" fill="#f9f9f9">QNX Studio</text>
  <text x="195" y="128" font-family="Segoe UI, Arial, sans-serif" font-size="19" fill="#64b5f6">AI code agent for QNX &#8212; powered by Quanvio</text>
</svg>
