<?xml version="1.0" encoding="UTF-8" standalone="no"?>
<svg
   width="26"
   height="24"
   viewBox="0 0 26 24"
   fill="none"
   version="1.1"
   id="svg1"
   sodipodi:docname="dark.svg"
   inkscape:version="1.4.2 (f4327f4, 2025-05-13)"
   xmlns:inkscape="http://www.inkscape.org/namespaces/inkscape"
   xmlns:sodipodi="http://sodipodi.sourceforge.net/DTD/sodipodi-0.dtd"
   xmlns="http://www.w3.org/2000/svg"
   xmlns:svg="http://www.w3.org/2000/svg">
  <defs
     id="defs1" />
  <sodipodi:namedview
     id="namedview1"
     pagecolor="#ffffff"
     bordercolor="#000000"
     borderopacity="0.25"
     inkscape:showpageshadow="2"
     inkscape:pageopacity="0.0"
     inkscape:pagecheckerboard="0"
     inkscape:deskcolor="#d1d1d1"
     inkscape:zoom="22.774731"
     inkscape:cx="10.033049"
     inkscape:cy="10.647766"
     inkscape:window-width="1920"
     inkscape:window-height="991"
     inkscape:window-x="-9"
     inkscape:window-y="-9"
     inkscape:window-maximized="1"
     inkscape:current-layer="svg1" />
  <g
     id="g13"
     style="stroke-width:7.14511;fill:#f9f9f9"
     transform="matrix(0.5289676,0,0,0.5289676,-102.99353,-23.639235)">
    <path
       id="path1-5"
       style="opacity:1;fill:#f9f9f9;fill-opacity:1;stroke-width:36.0399;stroke-linecap:round"
       d="m 211.39457,51.062266 c -8.98285,1.51e-4 -16.26477,7.282305 -16.26464,16.265157 1.5e-4,8.98265 7.28199,16.264505 16.26464,16.264641 3.09509,4.6e-5 5.98818,-0.864541 8.45116,-2.365231 l -3.16156,-3.092317 c -1.57464,0.758416 -3.3401,1.183395 -5.20485,1.18339 -6.63273,-1.7e-5 -12.00962,-5.376876 -12.0096,-12.009603 -2e-5,-6.632727 5.37687,-12.00962 12.0096,-12.009603 6.63273,-1.7e-5 12.00958,5.376876 12.0096,12.009603 0,1.704867 -0.35531,3.326635 -0.9958,4.795573 l 3.1228,3.122807 c 1.30203,-2.338924 2.04376,-5.032421 2.04381,-7.89926 1.5e-4,-8.983055 -7.28211,-16.265293 -16.26516,-16.265157 z" />
    <path
       style="opacity:1;fill:#f9f9f9;fill-opacity:1;stroke-width:36.0399;stroke-linecap:round"
       d="m 210.80335,69.002021 5.26979,0.03253 10.60463,10.63716 11.54798,-11.450399 h 5.04208 l -8.32756,8.295034 8.29503,8.295031 -4.74931,0.03253 -5.95291,-5.952906 -5.92037,5.855317 z"
       id="path2-2" />
  </g>
</svg>
